solid OpenSCAD_Model
  facet normal -0.382683 0.92388 0
    outer loop
      vertex -8.86 26.36 2
      vertex -10.6278 25.6278 5
      vertex -8.86 26.36 5
    endloop
  endfacet
  facet normal -0.382683 0.92388 0
    outer loop
      vertex -10.6278 25.6278 5
      vertex -8.86 26.36 2
      vertex -10.6278 25.6278 2
    endloop
  endfacet
  facet normal -0.382683 -0.92388 0
    outer loop
      vertex -10.6278 22.0922 2
      vertex -8.86 21.36 5
      vertex -10.6278 22.0922 5
    endloop
  endfacet
  facet normal -0.382683 -0.92388 -0
    outer loop
      vertex -8.86 21.36 5
      vertex -10.6278 22.0922 2
      vertex -8.86 21.36 2
    endloop
  endfacet
  facet normal -0.92388 0.382683 0
    outer loop
      vertex -11.36 23.86 2
      vertex -10.6278 25.6278 5
      vertex -10.6278 25.6278 2
    endloop
  endfacet
  facet normal -0.92388 0.382683 0
    outer loop
      vertex -10.6278 25.6278 5
      vertex -11.36 23.86 2
      vertex -11.36 23.86 5
    endloop
  endfacet
  facet normal 0 0 1
    outer loop
      vertex 8.86 24.86 2
      vertex 9.44778 23.051 2
      vertex 9.81106 24.169 2
    endloop
  endfacet
  facet normal 0 0 1
    outer loop
      vertex 8.86 24.86 2
      vertex 8.27221 23.051 2
      vertex 9.44778 23.051 2
    endloop
  endfacet
  facet normal 0 -0 1
    outer loop
      vertex 8.27221 23.051 2
      vertex 8.86 24.86 2
      vertex 7.90894 24.169 2
    endloop
  endfacet
  facet normal 0 0 1
    outer loop
      vertex -8.86 -20.86 2
      vertex -8.27221 -22.669 2
      vertex -7.90894 -21.551 2
    endloop
  endfacet
  facet normal 0 0 1
    outer loop
      vertex -8.86 -20.86 2
      vertex -9.44778 -22.669 2
      vertex -8.27221 -22.669 2
    endloop
  endfacet
  facet normal 0 -0 1
    outer loop
      vertex -9.44778 -22.669 2
      vertex -8.86 -20.86 2
      vertex -9.81106 -21.551 2
    endloop
  endfacet
  facet normal 0 0 1
    outer loop
      vertex 8.86 -20.86 2
      vertex 9.44778 -22.669 2
      vertex 9.81106 -21.551 2
    endloop
  endfacet
  facet normal 0 0 1
    outer loop
      vertex 8.86 -20.86 2
      vertex 8.27221 -22.669 2
      vertex 9.44778 -22.669 2
    endloop
  endfacet
  facet normal 0 -0 1
    outer loop
      vertex 8.27221 -22.669 2
      vertex 8.86 -20.86 2
      vertex 7.90894 -21.551 2
    endloop
  endfacet
  facet normal 0 0 1
    outer loop
      vertex -8.86 24.86 2
      vertex -8.27221 23.051 2
      vertex -7.90894 24.169 2
    endloop
  endfacet
  facet normal 0 0 1
    outer loop
      vertex -8.86 24.86 2
      vertex -9.44778 23.051 2
      vertex -8.27221 23.051 2
    endloop
  endfacet
  facet normal 0 -0 1
    outer loop
      vertex -9.44778 23.051 2
      vertex -8.86 24.86 2
      vertex -9.81106 24.169 2
    endloop
  endfacet
  facet normal 0 0 1
    outer loop
      vertex 75.0834 24.3961 2
      vertex 14.6946 20.2254 2
      vertex 23.7764 -7.72542 2
    endloop
  endfacet
  facet normal -0 0 1
    outer loop
      vertex 10.6278 22.0922 2
      vertex 14.6946 20.2254 2
      vertex 11.36 23.86 2
    endloop
  endfacet
  facet normal -0 0 1
    outer loop
      vertex 8.86 21.36 2
      vertex 14.6946 20.2254 2
      vertex 10.6278 22.0922 2
    endloop
  endfacet
  facet normal -0 0 1
    outer loop
      vertex 11.36 -21.86 2
      vertex 46.4041 -63.8698 2
      vertex 23.7764 -7.72542 2
    endloop
  endfacet
  facet normal -0 0 1
    outer loop
      vertex 10.6278 -23.6278 2
      vertex 46.4041 -63.8698 2
      vertex 11.36 -21.86 2
    endloop
  endfacet
  facet normal -0 0 1
    outer loop
      vertex 8.86 -24.36 2
      vertex 46.4041 -63.8698 2
      vertex 10.6278 -23.6278 2
    endloop
  endfacet
  facet normal 0 0 1
    outer loop
      vertex 0 -25 2
      vertex 8.86 -24.36 2
      vertex 7.09223 -23.6278 2
    endloop
  endfacet
  facet normal 0 0 1
    outer loop
      vertex 8.86 -24.36 2
      vertex 0 -25 2
      vertex 46.4041 -63.8698 2
    endloop
  endfacet
  facet normal 0 0 1
    outer loop
      vertex 6.36 -21.86 2
      vertex 0 -25 2
      vertex 7.09223 -23.6278 2
    endloop
  endfacet
  facet normal 0 0 1
    outer loop
      vertex 7.09223 -20.0922 2
      vertex 0 -25 2
      vertex 6.36 -21.86 2
    endloop
  endfacet
  facet normal 0 0 1
    outer loop
      vertex -7.09223 22.0922 2
      vertex 6.36 23.86 2
      vertex -6.36 23.86 2
    endloop
  endfacet
  facet normal 0 0 1
    outer loop
      vertex 6.36 23.86 2
      vertex -7.09223 25.6278 2
      vertex -6.36 23.86 2
    endloop
  endfacet
  facet normal 0 0 1
    outer loop
      vertex 0 78.9474 2
      vertex -8.86 26.36 2
      vertex -7.09223 25.6278 2
    endloop
  endfacet
  facet normal 0 0 1
    outer loop
      vertex 0 78.9474 2
      vertex -10.6278 25.6278 2
      vertex -8.86 26.36 2
    endloop
  endfacet
  facet normal 0 0 1
    outer loop
      vertex -14.6946 20.2254 2
      vertex -10.6278 25.6278 2
      vertex 0 78.9474 2
    endloop
  endfacet
  facet normal 0 0 1
    outer loop
      vertex -8.86 -19.36 2
      vertex -23.7764 -7.72542 2
      vertex -10.6278 -20.0922 2
    endloop
  endfacet
  facet normal 0 0 1
    outer loop
      vertex -10.6278 25.6278 2
      vertex -14.6946 20.2254 2
      vertex -11.36 23.86 2
    endloop
  endfacet
  facet normal 0 0 1
    outer loop
      vertex -14.6946 20.2254 2
      vertex -75.0834 24.3961 2
      vertex -23.7764 -7.72542 2
    endloop
  endfacet
  facet normal 0 0 1
    outer loop
      vertex 6.36 23.86 2
      vertex -7.09223 -20.0922 2
      vertex 0 -25 2
    endloop
  endfacet
  facet normal 0 0 1
    outer loop
      vertex 0 -25 2
      vertex -7.09223 -20.0922 2
      vertex -6.36 -21.86 2
    endloop
  endfacet
  facet normal -0 0 1
    outer loop
      vertex -8.86 21.36 2
      vertex -7.09223 -20.0922 2
      vertex -7.09223 22.0922 2
    endloop
  endfacet
  facet normal 0 0 1
    outer loop
      vertex -8.86 21.36 2
      vertex -8.86 -19.36 2
      vertex -7.09223 -20.0922 2
    endloop
  endfacet
  facet normal 0 0 1
    outer loop
      vertex -14.6946 20.2254 2
      vertex -8.86 21.36 2
      vertex -10.6278 22.0922 2
    endloop
  endfacet
  facet normal 0 0 1
    outer loop
      vertex -23.7764 -7.72542 2
      vertex -8.86 21.36 2
      vertex -14.6946 20.2254 2
    endloop
  endfacet
  facet normal 0 0 1
    outer loop
      vertex -14.6946 20.2254 2
      vertex -10.6278 22.0922 2
      vertex -11.36 23.86 2
    endloop
  endfacet
  facet normal 0 0 1
    outer loop
      vertex -8.86 21.36 2
      vertex -23.7764 -7.72542 2
      vertex -8.86 -19.36 2
    endloop
  endfacet
  facet normal 0 0 1
    outer loop
      vertex -7.09223 -20.0922 2
      vertex 6.36 23.86 2
      vertex -7.09223 22.0922 2
    endloop
  endfacet
  facet normal -0 0 1
    outer loop
      vertex -7.09223 -23.6278 2
      vertex 0 -25 2
      vertex -6.36 -21.86 2
    endloop
  endfacet
  facet normal -0 0 1
    outer loop
      vertex -8.86 -24.36 2
      vertex 0 -25 2
      vertex -7.09223 -23.6278 2
    endloop
  endfacet
  facet normal 0 0 1
    outer loop
      vertex -10.6278 -20.0922 2
      vertex -23.7764 -7.72542 2
      vertex -11.36 -21.86 2
    endloop
  endfacet
  facet normal 0 0 1
    outer loop
      vertex -46.4041 -63.8698 2
      vertex -11.36 -21.86 2
      vertex -23.7764 -7.72542 2
    endloop
  endfacet
  facet normal 0 0 1
    outer loop
      vertex -8.86 -24.36 2
      vertex -46.4041 -63.8698 2
      vertex 0 -25 2
    endloop
  endfacet
  facet normal 0 0 1
    outer loop
      vertex -10.6278 -23.6278 2
      vertex -46.4041 -63.8698 2
      vertex -8.86 -24.36 2
    endloop
  endfacet
  facet normal 0 0 1
    outer loop
      vertex -11.36 -21.86 2
      vertex -46.4041 -63.8698 2
      vertex -10.6278 -23.6278 2
    endloop
  endfacet
  facet normal 0 0 1
    outer loop
      vertex 14.6946 20.2254 2
      vertex 8.86 21.36 2
      vertex 23.7764 -7.72542 2
    endloop
  endfacet
  facet normal 0 0 1
    outer loop
      vertex 23.7764 -7.72542 2
      vertex 10.6278 -20.0922 2
      vertex 11.36 -21.86 2
    endloop
  endfacet
  facet normal 0 0 1
    outer loop
      vertex 8.86 -19.36 2
      vertex 23.7764 -7.72542 2
      vertex 8.86 21.36 2
    endloop
  endfacet
  facet normal 0 0 1
    outer loop
      vertex 23.7764 -7.72542 2
      vertex 8.86 -19.36 2
      vertex 10.6278 -20.0922 2
    endloop
  endfacet
  facet normal 0 0 1
    outer loop
      vertex 7.09223 22.0922 2
      vertex 8.86 -19.36 2
      vertex 8.86 21.36 2
    endloop
  endfacet
  facet normal 0 0 1
    outer loop
      vertex 7.09223 22.0922 2
      vertex 7.09223 -20.0922 2
      vertex 8.86 -19.36 2
    endloop
  endfacet
  facet normal 0 0 1
    outer loop
      vertex 0 -25 2
      vertex 7.09223 22.0922 2
      vertex 6.36 23.86 2
    endloop
  endfacet
  facet normal 0 0 1
    outer loop
      vertex 7.09223 22.0922 2
      vertex 0 -25 2
      vertex 7.09223 -20.0922 2
    endloop
  endfacet
  facet normal 0 0 1
    outer loop
      vertex 14.6946 20.2254 2
      vertex 10.6278 25.6278 2
      vertex 11.36 23.86 2
    endloop
  endfacet
  facet normal 0 0 1
    outer loop
      vertex 7.09223 25.6278 2
      vertex -7.09223 25.6278 2
      vertex 6.36 23.86 2
    endloop
  endfacet
  facet normal 0 0 1
    outer loop
      vertex 8.86 26.36 2
      vertex -7.09223 25.6278 2
      vertex 7.09223 25.6278 2
    endloop
  endfacet
  facet normal 0 0 1
    outer loop
      vertex -7.09223 25.6278 2
      vertex 8.86 26.36 2
      vertex 0 78.9474 2
    endloop
  endfacet
  facet normal 0 0 1
    outer loop
      vertex 10.6278 25.6278 2
      vertex 0 78.9474 2
      vertex 8.86 26.36 2
    endloop
  endfacet
  facet normal 0 0 1
    outer loop
      vertex 0 78.9474 2
      vertex 10.6278 25.6278 2
      vertex 14.6946 20.2254 2
    endloop
  endfacet
  facet normal -0.92388 -0.382683 0
    outer loop
      vertex -10.6278 22.0922 2
      vertex -11.36 23.86 5
      vertex -11.36 23.86 2
    endloop
  endfacet
  facet normal -0.92388 -0.382683 0
    outer loop
      vertex -11.36 23.86 5
      vertex -10.6278 22.0922 2
      vertex -10.6278 22.0922 5
    endloop
  endfacet
  facet normal 0.92388 0.382683 0
    outer loop
      vertex -6.36 23.86 5
      vertex -7.09223 25.6278 2
      vertex -7.09223 25.6278 5
    endloop
  endfacet
  facet normal 0.92388 0.382683 0
    outer loop
      vertex -7.09223 25.6278 2
      vertex -6.36 23.86 5
      vertex -6.36 23.86 2
    endloop
  endfacet
  facet normal 0.382684 -0.923879 0
    outer loop
      vertex -8.86 21.36 2
      vertex -7.09223 22.0922 5
      vertex -8.86 21.36 5
    endloop
  endfacet
  facet normal 0.382684 -0.923879 0
    outer loop
      vertex -7.09223 22.0922 5
      vertex -8.86 21.36 2
      vertex -7.09223 22.0922 2
    endloop
  endfacet
  facet normal 0.382684 0.923879 -0
    outer loop
      vertex -7.09223 25.6278 2
      vertex -8.86 26.36 5
      vertex -7.09223 25.6278 5
    endloop
  endfacet
  facet normal 0.382684 0.923879 0
    outer loop
      vertex -8.86 26.36 5
      vertex -7.09223 25.6278 2
      vertex -8.86 26.36 2
    endloop
  endfacet
  facet normal 0.92388 -0.382683 0
    outer loop
      vertex -7.09223 22.0922 5
      vertex -6.36 23.86 2
      vertex -6.36 23.86 5
    endloop
  endfacet
  facet normal 0.92388 -0.382683 0
    outer loop
      vertex -6.36 23.86 2
      vertex -7.09223 22.0922 5
      vertex -7.09223 22.0922 2
    endloop
  endfacet
  facet normal -0 0 1
    outer loop
      vertex -7.90894 24.169 5
      vertex -6.36 23.86 5
      vertex -7.09223 25.6278 5
    endloop
  endfacet
  facet normal 0 0 1
    outer loop
      vertex -8.27221 23.051 5
      vertex -6.36 23.86 5
      vertex -7.90894 24.169 5
    endloop
  endfacet
  facet normal 0 0 1
    outer loop
      vertex -8.86 24.86 5
      vertex -7.09223 25.6278 5
      vertex -8.86 26.36 5
    endloop
  endfacet
  facet normal 0 0 1
    outer loop
      vertex -7.09223 25.6278 5
      vertex -8.86 24.86 5
      vertex -7.90894 24.169 5
    endloop
  endfacet
  facet normal -0 0 1
    outer loop
      vertex -10.6278 25.6278 5
      vertex -8.86 24.86 5
      vertex -8.86 26.36 5
    endloop
  endfacet
  facet normal 0 0 1
    outer loop
      vertex -8.86 24.86 5
      vertex -10.6278 25.6278 5
      vertex -9.81106 24.169 5
    endloop
  endfacet
  facet normal 0 0 1
    outer loop
      vertex -6.36 23.86 5
      vertex -8.27221 23.051 5
      vertex -7.09223 22.0922 5
    endloop
  endfacet
  facet normal 0 0 1
    outer loop
      vertex -8.27221 23.051 5
      vertex -8.86 21.36 5
      vertex -7.09223 22.0922 5
    endloop
  endfacet
  facet normal -0 0 1
    outer loop
      vertex -9.44778 23.051 5
      vertex -8.86 21.36 5
      vertex -8.27221 23.051 5
    endloop
  endfacet
  facet normal 0 0 1
    outer loop
      vertex -11.36 23.86 5
      vertex -9.81106 24.169 5
      vertex -10.6278 25.6278 5
    endloop
  endfacet
  facet normal 0 0 1
    outer loop
      vertex -9.81106 24.169 5
      vertex -11.36 23.86 5
      vertex -9.44778 23.051 5
    endloop
  endfacet
  facet normal 0 0 1
    outer loop
      vertex -9.44778 23.051 5
      vertex -10.6278 22.0922 5
      vertex -8.86 21.36 5
    endloop
  endfacet
  facet normal 0 0 1
    outer loop
      vertex -9.44778 23.051 5
      vertex -11.36 23.86 5
      vertex -10.6278 22.0922 5
    endloop
  endfacet
  facet normal 0.587786 -0.809016 0
    outer loop
      vertex -9.81106 24.169 2
      vertex -8.86 24.86 5
      vertex -9.81106 24.169 5
    endloop
  endfacet
  facet normal 0.587786 -0.809016 0
    outer loop
      vertex -8.86 24.86 5
      vertex -9.81106 24.169 2
      vertex -8.86 24.86 2
    endloop
  endfacet
  facet normal 0 1 -0
    outer loop
      vertex -8.27221 23.051 2
      vertex -9.44778 23.051 5
      vertex -8.27221 23.051 5
    endloop
  endfacet
  facet normal 0 1 0
    outer loop
      vertex -9.44778 23.051 5
      vertex -8.27221 23.051 2
      vertex -9.44778 23.051 2
    endloop
  endfacet
  facet normal 0.951056 0.309018 0
    outer loop
      vertex -9.44778 23.051 5
      vertex -9.81106 24.169 2
      vertex -9.81106 24.169 5
    endloop
  endfacet
  facet normal 0.951056 0.309018 0
    outer loop
      vertex -9.81106 24.169 2
      vertex -9.44778 23.051 5
      vertex -9.44778 23.051 2
    endloop
  endfacet
  facet normal -0.587786 -0.809016 0
    outer loop
      vertex -8.86 24.86 2
      vertex -7.90894 24.169 5
      vertex -8.86 24.86 5
    endloop
  endfacet
  facet normal -0.587786 -0.809016 -0
    outer loop
      vertex -7.90894 24.169 5
      vertex -8.86 24.86 2
      vertex -7.90894 24.169 2
    endloop
  endfacet
  facet normal -0.951056 0.309017 0
    outer loop
      vertex -8.27221 23.051 2
      vertex -7.90894 24.169 5
      vertex -7.90894 24.169 2
    endloop
  endfacet
  facet normal -0.951056 0.309017 0
    outer loop
      vertex -7.90894 24.169 5
      vertex -8.27221 23.051 2
      vertex -8.27221 23.051 5
    endloop
  endfacet
  facet normal -0.382684 0.923879 0
    outer loop
      vertex 8.86 -19.36 2
      vertex 7.09223 -20.0922 5
      vertex 8.86 -19.36 5
    endloop
  endfacet
  facet normal -0.382684 0.923879 0
    outer loop
      vertex 7.09223 -20.0922 5
      vertex 8.86 -19.36 2
      vertex 7.09223 -20.0922 2
    endloop
  endfacet
  facet normal -0.382684 -0.923879 0
    outer loop
      vertex 7.09223 -23.6278 2
      vertex 8.86 -24.36 5
      vertex 7.09223 -23.6278 5
    endloop
  endfacet
  facet normal -0.382684 -0.923879 -0
    outer loop
      vertex 8.86 -24.36 5
      vertex 7.09223 -23.6278 2
      vertex 8.86 -24.36 2
    endloop
  endfacet
  facet normal -0.92388 0.382683 0
    outer loop
      vertex 6.36 -21.86 2
      vertex 7.09223 -20.0922 5
      vertex 7.09223 -20.0922 2
    endloop
  endfacet
  facet normal -0.92388 0.382683 0
    outer loop
      vertex 7.09223 -20.0922 5
      vertex 6.36 -21.86 2
      vertex 6.36 -21.86 5
    endloop
  endfacet
  facet normal -0.92388 -0.382683 0
    outer loop
      vertex 7.09223 -23.6278 2
      vertex 6.36 -21.86 5
      vertex 6.36 -21.86 2
    endloop
  endfacet
  facet normal -0.92388 -0.382683 0
    outer loop
      vertex 6.36 -21.86 5
      vertex 7.09223 -23.6278 2
      vertex 7.09223 -23.6278 5
    endloop
  endfacet
  facet normal 0.92388 0.382683 0
    outer loop
      vertex 11.36 -21.86 5
      vertex 10.6278 -20.0922 2
      vertex 10.6278 -20.0922 5
    endloop
  endfacet
  facet normal 0.92388 0.382683 0
    outer loop
      vertex 10.6278 -20.0922 2
      vertex 11.36 -21.86 5
      vertex 11.36 -21.86 2
    endloop
  endfacet
  facet normal 0.382683 -0.92388 0
    outer loop
      vertex 8.86 -24.36 2
      vertex 10.6278 -23.6278 5
      vertex 8.86 -24.36 5
    endloop
  endfacet
  facet normal 0.382683 -0.92388 0
    outer loop
      vertex 10.6278 -23.6278 5
      vertex 8.86 -24.36 2
      vertex 10.6278 -23.6278 2
    endloop
  endfacet
  facet normal 0.382683 0.92388 -0
    outer loop
      vertex 10.6278 -20.0922 2
      vertex 8.86 -19.36 5
      vertex 10.6278 -20.0922 5
    endloop
  endfacet
  facet normal 0.382683 0.92388 0
    outer loop
      vertex 8.86 -19.36 5
      vertex 10.6278 -20.0922 2
      vertex 8.86 -19.36 2
    endloop
  endfacet
  facet normal 0.92388 -0.382683 0
    outer loop
      vertex 10.6278 -23.6278 5
      vertex 11.36 -21.86 2
      vertex 11.36 -21.86 5
    endloop
  endfacet
  facet normal 0.92388 -0.382683 0
    outer loop
      vertex 11.36 -21.86 2
      vertex 10.6278 -23.6278 5
      vertex 10.6278 -23.6278 2
    endloop
  endfacet
  facet normal -0 0 1
    outer loop
      vertex 9.81106 -21.551 5
      vertex 11.36 -21.86 5
      vertex 10.6278 -20.0922 5
    endloop
  endfacet
  facet normal 0 0 1
    outer loop
      vertex 9.44778 -22.669 5
      vertex 11.36 -21.86 5
      vertex 9.81106 -21.551 5
    endloop
  endfacet
  facet normal 0 0 1
    outer loop
      vertex 8.86 -20.86 5
      vertex 10.6278 -20.0922 5
      vertex 8.86 -19.36 5
    endloop
  endfacet
  facet normal 0 0 1
    outer loop
      vertex 10.6278 -20.0922 5
      vertex 8.86 -20.86 5
      vertex 9.81106 -21.551 5
    endloop
  endfacet
  facet normal -0 0 1
    outer loop
      vertex 7.09223 -20.0922 5
      vertex 8.86 -20.86 5
      vertex 8.86 -19.36 5
    endloop
  endfacet
  facet normal 0 0 1
    outer loop
      vertex 8.86 -20.86 5
      vertex 7.09223 -20.0922 5
      vertex 7.90894 -21.551 5
    endloop
  endfacet
  facet normal 0 0 1
    outer loop
      vertex 11.36 -21.86 5
      vertex 9.44778 -22.669 5
      vertex 10.6278 -23.6278 5
    endloop
  endfacet
  facet normal 0 0 1
    outer loop
      vertex 9.44778 -22.669 5
      vertex 8.86 -24.36 5
      vertex 10.6278 -23.6278 5
    endloop
  endfacet
  facet normal -0 0 1
    outer loop
      vertex 8.27221 -22.669 5
      vertex 8.86 -24.36 5
      vertex 9.44778 -22.669 5
    endloop
  endfacet
  facet normal 0 0 1
    outer loop
      vertex 6.36 -21.86 5
      vertex 7.90894 -21.551 5
      vertex 7.09223 -20.0922 5
    endloop
  endfacet
  facet normal 0 0 1
    outer loop
      vertex 7.90894 -21.551 5
      vertex 6.36 -21.86 5
      vertex 8.27221 -22.669 5
    endloop
  endfacet
  facet normal 0 0 1
    outer loop
      vertex 8.27221 -22.669 5
      vertex 7.09223 -23.6278 5
      vertex 8.86 -24.36 5
    endloop
  endfacet
  facet normal 0 0 1
    outer loop
      vertex 8.27221 -22.669 5
      vertex 6.36 -21.86 5
      vertex 7.09223 -23.6278 5
    endloop
  endfacet
  facet normal 0.587785 -0.809017 0
    outer loop
      vertex 7.90894 -21.551 2
      vertex 8.86 -20.86 5
      vertex 7.90894 -21.551 5
    endloop
  endfacet
  facet normal 0.587785 -0.809017 0
    outer loop
      vertex 8.86 -20.86 5
      vertex 7.90894 -21.551 2
      vertex 8.86 -20.86 2
    endloop
  endfacet
  facet normal 0 1 -0
    outer loop
      vertex 9.44778 -22.669 2
      vertex 8.27221 -22.669 5
      vertex 9.44778 -22.669 5
    endloop
  endfacet
  facet normal 0 1 0
    outer loop
      vertex 8.27221 -22.669 5
      vertex 9.44778 -22.669 2
      vertex 8.27221 -22.669 2
    endloop
  endfacet
  facet normal 0.951056 0.309017 0
    outer loop
      vertex 8.27221 -22.669 5
      vertex 7.90894 -21.551 2
      vertex 7.90894 -21.551 5
    endloop
  endfacet
  facet normal 0.951056 0.309017 0
    outer loop
      vertex 7.90894 -21.551 2
      vertex 8.27221 -22.669 5
      vertex 8.27221 -22.669 2
    endloop
  endfacet
  facet normal -0.587785 -0.809017 0
    outer loop
      vertex 8.86 -20.86 2
      vertex 9.81106 -21.551 5
      vertex 8.86 -20.86 5
    endloop
  endfacet
  facet normal -0.587785 -0.809017 -0
    outer loop
      vertex 9.81106 -21.551 5
      vertex 8.86 -20.86 2
      vertex 9.81106 -21.551 2
    endloop
  endfacet
  facet normal -0.951056 0.309018 0
    outer loop
      vertex 9.44778 -22.669 2
      vertex 9.81106 -21.551 5
      vertex 9.81106 -21.551 2
    endloop
  endfacet
  facet normal -0.951056 0.309018 0
    outer loop
      vertex 9.81106 -21.551 5
      vertex 9.44778 -22.669 2
      vertex 9.44778 -22.669 5
    endloop
  endfacet
  facet normal -0.382683 0.92388 0
    outer loop
      vertex -8.86 -19.36 2
      vertex -10.6278 -20.0922 5
      vertex -8.86 -19.36 5
    endloop
  endfacet
  facet normal -0.382683 0.92388 0
    outer loop
      vertex -10.6278 -20.0922 5
      vertex -8.86 -19.36 2
      vertex -10.6278 -20.0922 2
    endloop
  endfacet
  facet normal -0.382683 -0.92388 0
    outer loop
      vertex -10.6278 -23.6278 2
      vertex -8.86 -24.36 5
      vertex -10.6278 -23.6278 5
    endloop
  endfacet
  facet normal -0.382683 -0.92388 -0
    outer loop
      vertex -8.86 -24.36 5
      vertex -10.6278 -23.6278 2
      vertex -8.86 -24.36 2
    endloop
  endfacet
  facet normal -0.92388 0.382683 0
    outer loop
      vertex -11.36 -21.86 2
      vertex -10.6278 -20.0922 5
      vertex -10.6278 -20.0922 2
    endloop
  endfacet
  facet normal -0.92388 0.382683 0
    outer loop
      vertex -10.6278 -20.0922 5
      vertex -11.36 -21.86 2
      vertex -11.36 -21.86 5
    endloop
  endfacet
  facet normal -0.92388 -0.382683 0
    outer loop
      vertex -10.6278 -23.6278 2
      vertex -11.36 -21.86 5
      vertex -11.36 -21.86 2
    endloop
  endfacet
  facet normal -0.92388 -0.382683 0
    outer loop
      vertex -11.36 -21.86 5
      vertex -10.6278 -23.6278 2
      vertex -10.6278 -23.6278 5
    endloop
  endfacet
  facet normal 0.92388 0.382683 0
    outer loop
      vertex -6.36 -21.86 5
      vertex -7.09223 -20.0922 2
      vertex -7.09223 -20.0922 5
    endloop
  endfacet
  facet normal 0.92388 0.382683 0
    outer loop
      vertex -7.09223 -20.0922 2
      vertex -6.36 -21.86 5
      vertex -6.36 -21.86 2
    endloop
  endfacet
  facet normal 0.382684 -0.923879 0
    outer loop
      vertex -8.86 -24.36 2
      vertex -7.09223 -23.6278 5
      vertex -8.86 -24.36 5
    endloop
  endfacet
  facet normal 0.382684 -0.923879 0
    outer loop
      vertex -7.09223 -23.6278 5
      vertex -8.86 -24.36 2
      vertex -7.09223 -23.6278 2
    endloop
  endfacet
  facet normal 0.382684 0.923879 -0
    outer loop
      vertex -7.09223 -20.0922 2
      vertex -8.86 -19.36 5
      vertex -7.09223 -20.0922 5
    endloop
  endfacet
  facet normal 0.382684 0.923879 0
    outer loop
      vertex -8.86 -19.36 5
      vertex -7.09223 -20.0922 2
      vertex -8.86 -19.36 2
    endloop
  endfacet
  facet normal 0.92388 -0.382683 0
    outer loop
      vertex -7.09223 -23.6278 5
      vertex -6.36 -21.86 2
      vertex -6.36 -21.86 5
    endloop
  endfacet
  facet normal 0.92388 -0.382683 0
    outer loop
      vertex -6.36 -21.86 2
      vertex -7.09223 -23.6278 5
      vertex -7.09223 -23.6278 2
    endloop
  endfacet
  facet normal -0 0 1
    outer loop
      vertex -7.90894 -21.551 5
      vertex -6.36 -21.86 5
      vertex -7.09223 -20.0922 5
    endloop
  endfacet
  facet normal 0 0 1
    outer loop
      vertex -8.27221 -22.669 5
      vertex -6.36 -21.86 5
      vertex -7.90894 -21.551 5
    endloop
  endfacet
  facet normal 0 0 1
    outer loop
      vertex -8.86 -20.86 5
      vertex -7.09223 -20.0922 5
      vertex -8.86 -19.36 5
    endloop
  endfacet
  facet normal 0 0 1
    outer loop
      vertex -7.09223 -20.0922 5
      vertex -8.86 -20.86 5
      vertex -7.90894 -21.551 5
    endloop
  endfacet
  facet normal -0 0 1
    outer loop
      vertex -10.6278 -20.0922 5
      vertex -8.86 -20.86 5
      vertex -8.86 -19.36 5
    endloop
  endfacet
  facet normal 0 0 1
    outer loop
      vertex -8.86 -20.86 5
      vertex -10.6278 -20.0922 5
      vertex -9.81106 -21.551 5
    endloop
  endfacet
  facet normal 0 0 1
    outer loop
      vertex -6.36 -21.86 5
      vertex -8.27221 -22.669 5
      vertex -7.09223 -23.6278 5
    endloop
  endfacet
  facet normal 0 0 1
    outer loop
      vertex -8.27221 -22.669 5
      vertex -8.86 -24.36 5
      vertex -7.09223 -23.6278 5
    endloop
  endfacet
  facet normal -0 0 1
    outer loop
      vertex -9.44778 -22.669 5
      vertex -8.86 -24.36 5
      vertex -8.27221 -22.669 5
    endloop
  endfacet
  facet normal 0 0 1
    outer loop
      vertex -11.36 -21.86 5
      vertex -9.81106 -21.551 5
      vertex -10.6278 -20.0922 5
    endloop
  endfacet
  facet normal 0 0 1
    outer loop
      vertex -9.81106 -21.551 5
      vertex -11.36 -21.86 5
      vertex -9.44778 -22.669 5
    endloop
  endfacet
  facet normal 0 0 1
    outer loop
      vertex -9.44778 -22.669 5
      vertex -10.6278 -23.6278 5
      vertex -8.86 -24.36 5
    endloop
  endfacet
  facet normal 0 0 1
    outer loop
      vertex -9.44778 -22.669 5
      vertex -11.36 -21.86 5
      vertex -10.6278 -23.6278 5
    endloop
  endfacet
  facet normal 0.587785 -0.809017 0
    outer loop
      vertex -9.81106 -21.551 2
      vertex -8.86 -20.86 5
      vertex -9.81106 -21.551 5
    endloop
  endfacet
  facet normal 0.587785 -0.809017 0
    outer loop
      vertex -8.86 -20.86 5
      vertex -9.81106 -21.551 2
      vertex -8.86 -20.86 2
    endloop
  endfacet
  facet normal 0 1 -0
    outer loop
      vertex -8.27221 -22.669 2
      vertex -9.44778 -22.669 5
      vertex -8.27221 -22.669 5
    endloop
  endfacet
  facet normal 0 1 0
    outer loop
      vertex -9.44778 -22.669 5
      vertex -8.27221 -22.669 2
      vertex -9.44778 -22.669 2
    endloop
  endfacet
  facet normal 0.951056 0.309018 0
    outer loop
      vertex -9.44778 -22.669 5
      vertex -9.81106 -21.551 2
      vertex -9.81106 -21.551 5
    endloop
  endfacet
  facet normal 0.951056 0.309018 0
    outer loop
      vertex -9.81106 -21.551 2
      vertex -9.44778 -22.669 5
      vertex -9.44778 -22.669 2
    endloop
  endfacet
  facet normal -0.587785 -0.809017 0
    outer loop
      vertex -8.86 -20.86 2
      vertex -7.90894 -21.551 5
      vertex -8.86 -20.86 5
    endloop
  endfacet
  facet normal -0.587785 -0.809017 -0
    outer loop
      vertex -7.90894 -21.551 5
      vertex -8.86 -20.86 2
      vertex -7.90894 -21.551 2
    endloop
  endfacet
  facet normal -0.951056 0.309017 0
    outer loop
      vertex -8.27221 -22.669 2
      vertex -7.90894 -21.551 5
      vertex -7.90894 -21.551 2
    endloop
  endfacet
  facet normal -0.951056 0.309017 0
    outer loop
      vertex -7.90894 -21.551 5
      vertex -8.27221 -22.669 2
      vertex -8.27221 -22.669 5
    endloop
  endfacet
  facet normal -0.382684 0.923879 0
    outer loop
      vertex 8.86 26.36 2
      vertex 7.09223 25.6278 5
      vertex 8.86 26.36 5
    endloop
  endfacet
  facet normal -0.382684 0.923879 0
    outer loop
      vertex 7.09223 25.6278 5
      vertex 8.86 26.36 2
      vertex 7.09223 25.6278 2
    endloop
  endfacet
  facet normal -0.382684 -0.923879 0
    outer loop
      vertex 7.09223 22.0922 2
      vertex 8.86 21.36 5
      vertex 7.09223 22.0922 5
    endloop
  endfacet
  facet normal -0.382684 -0.923879 -0
    outer loop
      vertex 8.86 21.36 5
      vertex 7.09223 22.0922 2
      vertex 8.86 21.36 2
    endloop
  endfacet
  facet normal -0.92388 0.382683 0
    outer loop
      vertex 6.36 23.86 2
      vertex 7.09223 25.6278 5
      vertex 7.09223 25.6278 2
    endloop
  endfacet
  facet normal -0.92388 0.382683 0
    outer loop
      vertex 7.09223 25.6278 5
      vertex 6.36 23.86 2
      vertex 6.36 23.86 5
    endloop
  endfacet
  facet normal -0.92388 -0.382683 0
    outer loop
      vertex 7.09223 22.0922 2
      vertex 6.36 23.86 5
      vertex 6.36 23.86 2
    endloop
  endfacet
  facet normal -0.92388 -0.382683 0
    outer loop
      vertex 6.36 23.86 5
      vertex 7.09223 22.0922 2
      vertex 7.09223 22.0922 5
    endloop
  endfacet
  facet normal 0.92388 0.382683 0
    outer loop
      vertex 11.36 23.86 5
      vertex 10.6278 25.6278 2
      vertex 10.6278 25.6278 5
    endloop
  endfacet
  facet normal 0.92388 0.382683 0
    outer loop
      vertex 10.6278 25.6278 2
      vertex 11.36 23.86 5
      vertex 11.36 23.86 2
    endloop
  endfacet
  facet normal 0.382683 -0.92388 0
    outer loop
      vertex 8.86 21.36 2
      vertex 10.6278 22.0922 5
      vertex 8.86 21.36 5
    endloop
  endfacet
  facet normal 0.382683 -0.92388 0
    outer loop
      vertex 10.6278 22.0922 5
      vertex 8.86 21.36 2
      vertex 10.6278 22.0922 2
    endloop
  endfacet
  facet normal 0.382683 0.92388 -0
    outer loop
      vertex 10.6278 25.6278 2
      vertex 8.86 26.36 5
      vertex 10.6278 25.6278 5
    endloop
  endfacet
  facet normal 0.382683 0.92388 0
    outer loop
      vertex 8.86 26.36 5
      vertex 10.6278 25.6278 2
      vertex 8.86 26.36 2
    endloop
  endfacet
  facet normal 0.92388 -0.382683 0
    outer loop
      vertex 10.6278 22.0922 5
      vertex 11.36 23.86 2
      vertex 11.36 23.86 5
    endloop
  endfacet
  facet normal 0.92388 -0.382683 0
    outer loop
      vertex 11.36 23.86 2
      vertex 10.6278 22.0922 5
      vertex 10.6278 22.0922 2
    endloop
  endfacet
  facet normal -0 0 1
    outer loop
      vertex 9.81106 24.169 5
      vertex 11.36 23.86 5
      vertex 10.6278 25.6278 5
    endloop
  endfacet
  facet normal 0 0 1
    outer loop
      vertex 9.44778 23.051 5
      vertex 11.36 23.86 5
      vertex 9.81106 24.169 5
    endloop
  endfacet
  facet normal 0 0 1
    outer loop
      vertex 8.86 24.86 5
      vertex 10.6278 25.6278 5
      vertex 8.86 26.36 5
    endloop
  endfacet
  facet normal 0 0 1
    outer loop
      vertex 10.6278 25.6278 5
      vertex 8.86 24.86 5
      vertex 9.81106 24.169 5
    endloop
  endfacet
  facet normal -0 0 1
    outer loop
      vertex 7.09223 25.6278 5
      vertex 8.86 24.86 5
      vertex 8.86 26.36 5
    endloop
  endfacet
  facet normal 0 0 1
    outer loop
      vertex 8.86 24.86 5
      vertex 7.09223 25.6278 5
      vertex 7.90894 24.169 5
    endloop
  endfacet
  facet normal 0 0 1
    outer loop
      vertex 11.36 23.86 5
      vertex 9.44778 23.051 5
      vertex 10.6278 22.0922 5
    endloop
  endfacet
  facet normal 0 0 1
    outer loop
      vertex 9.44778 23.051 5
      vertex 8.86 21.36 5
      vertex 10.6278 22.0922 5
    endloop
  endfacet
  facet normal -0 0 1
    outer loop
      vertex 8.27221 23.051 5
      vertex 8.86 21.36 5
      vertex 9.44778 23.051 5
    endloop
  endfacet
  facet normal 0 0 1
    outer loop
      vertex 6.36 23.86 5
      vertex 7.90894 24.169 5
      vertex 7.09223 25.6278 5
    endloop
  endfacet
  facet normal 0 0 1
    outer loop
      vertex 7.90894 24.169 5
      vertex 6.36 23.86 5
      vertex 8.27221 23.051 5
    endloop
  endfacet
  facet normal 0 0 1
    outer loop
      vertex 8.27221 23.051 5
      vertex 7.09223 22.0922 5
      vertex 8.86 21.36 5
    endloop
  endfacet
  facet normal 0 0 1
    outer loop
      vertex 8.27221 23.051 5
      vertex 6.36 23.86 5
      vertex 7.09223 22.0922 5
    endloop
  endfacet
  facet normal 0.587786 -0.809016 0
    outer loop
      vertex 7.90894 24.169 2
      vertex 8.86 24.86 5
      vertex 7.90894 24.169 5
    endloop
  endfacet
  facet normal 0.587786 -0.809016 0
    outer loop
      vertex 8.86 24.86 5
      vertex 7.90894 24.169 2
      vertex 8.86 24.86 2
    endloop
  endfacet
  facet normal 0 1 -0
    outer loop
      vertex 9.44778 23.051 2
      vertex 8.27221 23.051 5
      vertex 9.44778 23.051 5
    endloop
  endfacet
  facet normal 0 1 0
    outer loop
      vertex 8.27221 23.051 5
      vertex 9.44778 23.051 2
      vertex 8.27221 23.051 2
    endloop
  endfacet
  facet normal 0.951056 0.309017 0
    outer loop
      vertex 8.27221 23.051 5
      vertex 7.90894 24.169 2
      vertex 7.90894 24.169 5
    endloop
  endfacet
  facet normal 0.951056 0.309017 0
    outer loop
      vertex 7.90894 24.169 2
      vertex 8.27221 23.051 5
      vertex 8.27221 23.051 2
    endloop
  endfacet
  facet normal -0.587786 -0.809016 0
    outer loop
      vertex 8.86 24.86 2
      vertex 9.81106 24.169 5
      vertex 8.86 24.86 5
    endloop
  endfacet
  facet normal -0.587786 -0.809016 -0
    outer loop
      vertex 9.81106 24.169 5
      vertex 8.86 24.86 2
      vertex 9.81106 24.169 2
    endloop
  endfacet
  facet normal -0.951056 0.309018 0
    outer loop
      vertex 9.44778 23.051 2
      vertex 9.81106 24.169 5
      vertex 9.81106 24.169 2
    endloop
  endfacet
  facet normal -0.951056 0.309018 0
    outer loop
      vertex 9.81106 24.169 5
      vertex 9.44778 23.051 2
      vertex 9.44778 23.051 5
    endloop
  endfacet
  facet normal 0 0 -1
    outer loop
      vertex 0 -25 0
      vertex 23.7764 -7.72542 0
      vertex 46.4041 -63.8698 0
    endloop
  endfacet
  facet normal 0 0 -1
    outer loop
      vertex 0 -25 0
      vertex 14.6946 20.2254 0
      vertex 23.7764 -7.72542 0
    endloop
  endfacet
  facet normal 0 0 -1
    outer loop
      vertex -14.6946 20.2254 0
      vertex 14.6946 20.2254 0
      vertex 0 -25 0
    endloop
  endfacet
  facet normal 0 0 -1
    outer loop
      vertex 14.6946 20.2254 0
      vertex -14.6946 20.2254 0
      vertex 0 78.9474 0
    endloop
  endfacet
  facet normal 0 0 -1
    outer loop
      vertex 0 -25 0
      vertex -23.7764 -7.72542 0
      vertex -14.6946 20.2254 0
    endloop
  endfacet
  facet normal 0 -0 -1
    outer loop
      vertex -23.7764 -7.72542 0
      vertex 0 -25 0
      vertex -46.4041 -63.8698 0
    endloop
  endfacet
  facet normal 0 0 -1
    outer loop
      vertex 75.0834 24.3961 0
      vertex 23.7764 -7.72542 0
      vertex 14.6946 20.2254 0
    endloop
  endfacet
  facet normal -0 0 -1
    outer loop
      vertex -14.6946 20.2254 0
      vertex -23.7764 -7.72542 0
      vertex -75.0834 24.3961 0
    endloop
  endfacet
  facet normal -0.530648 -0.847593 0
    outer loop
      vertex -75.0834 24.3961 0
      vertex -23.7764 -7.72542 2
      vertex -75.0834 24.3961 2
    endloop
  endfacet
  facet normal -0.530648 -0.847593 -0
    outer loop
      vertex -23.7764 -7.72542 2
      vertex -75.0834 24.3961 0
      vertex -23.7764 -7.72542 0
    endloop
  endfacet
  facet normal -0.927505 0.37381 0
    outer loop
      vertex -46.4041 -63.8698 0
      vertex -23.7764 -7.72542 2
      vertex -23.7764 -7.72542 0
    endloop
  endfacet
  facet normal -0.927505 0.37381 0
    outer loop
      vertex -23.7764 -7.72542 2
      vertex -46.4041 -63.8698 0
      vertex -46.4041 -63.8698 2
    endloop
  endfacet
  facet normal 0.642129 -0.766597 0
    outer loop
      vertex -46.4041 -63.8698 0
      vertex 0 -25 2
      vertex -46.4041 -63.8698 2
    endloop
  endfacet
  facet normal 0.642129 -0.766597 0
    outer loop
      vertex 0 -25 2
      vertex -46.4041 -63.8698 0
      vertex 0 -25 0
    endloop
  endfacet
  facet normal -0.642129 -0.766597 0
    outer loop
      vertex 0 -25 0
      vertex 46.4041 -63.8698 2
      vertex 0 -25 2
    endloop
  endfacet
  facet normal -0.642129 -0.766597 -0
    outer loop
      vertex 46.4041 -63.8698 2
      vertex 0 -25 0
      vertex 46.4041 -63.8698 0
    endloop
  endfacet
  facet normal 0.927505 0.37381 0
    outer loop
      vertex 46.4041 -63.8698 2
      vertex 23.7764 -7.72542 0
      vertex 23.7764 -7.72542 2
    endloop
  endfacet
  facet normal 0.927505 0.37381 0
    outer loop
      vertex 23.7764 -7.72542 0
      vertex 46.4041 -63.8698 2
      vertex 46.4041 -63.8698 0
    endloop
  endfacet
  facet normal 0.530648 -0.847593 0
    outer loop
      vertex 23.7764 -7.72542 0
      vertex 75.0834 24.3961 2
      vertex 23.7764 -7.72542 2
    endloop
  endfacet
  facet normal 0.530648 -0.847593 0
    outer loop
      vertex 75.0834 24.3961 2
      vertex 23.7764 -7.72542 0
      vertex 75.0834 24.3961 0
    endloop
  endfacet
  facet normal -0.0688993 0.997624 0
    outer loop
      vertex 75.0834 24.3961 0
      vertex 14.6946 20.2254 2
      vertex 75.0834 24.3961 2
    endloop
  endfacet
  facet normal -0.0688993 0.997624 0
    outer loop
      vertex 14.6946 20.2254 2
      vertex 75.0834 24.3961 0
      vertex 14.6946 20.2254 0
    endloop
  endfacet
  facet normal 0.970088 0.242755 0
    outer loop
      vertex 14.6946 20.2254 2
      vertex 0 78.9474 0
      vertex 0 78.9474 2
    endloop
  endfacet
  facet normal 0.970088 0.242755 0
    outer loop
      vertex 0 78.9474 0
      vertex 14.6946 20.2254 2
      vertex 14.6946 20.2254 0
    endloop
  endfacet
  facet normal -0.970088 0.242755 0
    outer loop
      vertex -14.6946 20.2254 0
      vertex 0 78.9474 2
      vertex 0 78.9474 0
    endloop
  endfacet
  facet normal -0.970088 0.242755 0
    outer loop
      vertex 0 78.9474 2
      vertex -14.6946 20.2254 0
      vertex -14.6946 20.2254 2
    endloop
  endfacet
  facet normal 0.0688993 0.997624 -0
    outer loop
      vertex -14.6946 20.2254 0
      vertex -75.0834 24.3961 2
      vertex -14.6946 20.2254 2
    endloop
  endfacet
  facet normal 0.0688993 0.997624 0
    outer loop
      vertex -75.0834 24.3961 2
      vertex -14.6946 20.2254 0
      vertex -75.0834 24.3961 0
    endloop
  endfacet
endsolid OpenSCAD_Model
